<svg xmlns="http://www.w3.org/2000/svg" width="101" height="81" viewBox="0 0 101 81" fill="none"><g clip-path="url(#clip0_271_20160)"><path d="M90.5105 80.9463H10.925C5.30813 80.9463 0.717773 76.436 0.717773 70.8746V11.018C0.717773 5.45656 5.28876 0.946289 10.925 0.946289H90.5299C96.1468 0.946289 100.737 5.45656 100.737 11.018V70.8746C100.737 76.4169 96.1661 80.9463 90.5299 80.9463H90.5105ZM10.925 4.76855C7.43867 4.76855 4.59149 7.57792 4.59149 11.018V70.8746C4.59149 74.3147 7.4193 77.124 10.925 77.124H90.5299C94.0162 77.124 96.8634 74.3147 96.8634 70.8746V11.018C96.8634 7.57792 94.0162 4.76855 90.5299 4.76855H10.925Z" fill="#002A3C"></path><path d="M37.7116 3.83203H33.8379V77.5444H37.7116V3.83203Z" fill="#002A3C"></path><path d="M19.5052 27.2622C22.9818 27.2622 25.8 24.4814 25.8 21.051C25.8 17.6207 22.9818 14.8398 19.5052 14.8398C16.0287 14.8398 13.2104 17.6207 13.2104 21.051C13.2104 24.4814 16.0287 27.2622 19.5052 27.2622Z" fill="#00B2E3"></path><path d="M19.5052 46.9858C22.9818 46.9858 25.8 44.205 25.8 40.7747C25.8 37.3443 22.9818 34.5635 19.5052 34.5635C16.0287 34.5635 13.2104 37.3443 13.2104 40.7747C13.2104 44.205 16.0287 46.9858 19.5052 46.9858Z" fill="#00B2E3"></path><path d="M19.5052 66.1157C22.9818 66.1157 25.8 63.3349 25.8 59.9045C25.8 56.4742 22.9818 53.6934 19.5052 53.6934C16.0287 53.6934 13.2104 56.4742 13.2104 59.9045C13.2104 63.3349 16.0287 66.1157 19.5052 66.1157Z" fill="#00B2E3"></path></g><defs><clipPath id="clip0_271_20160"><rect width="100" height="80" fill="white" transform="translate(0.717773 0.946289)"></rect></clipPath></defs></svg>