<svg xmlns="http://www.w3.org/2000/svg" width="87" height="87" viewBox="0 0 87 87" fill="none"><g clip-path="url(#clip0_92_343)"><g clip-path="url(#clip1_92_343)"><path d="M71.8113 42.9396C73.0081 43.0776 73.0081 44.8158 71.8113 44.9538L66.3989 45.5773C55.1078 46.8783 46.2016 55.7855 44.8996 67.0766L44.2761 72.4881C44.1381 73.6849 42.3999 73.6849 42.2619 72.4881L41.6384 67.0766C40.3374 55.7855 31.4302 46.8793 20.1391 45.5773L14.7267 44.9538C13.5299 44.8158 13.5299 43.0776 14.7267 42.9396L20.1382 42.3161C31.4292 41.0151 40.3355 32.1079 41.6374 20.8169L42.2609 15.4044C42.3989 14.2076 44.1371 14.2076 44.2752 15.4044L44.8986 20.8169C46.1996 32.1079 55.1068 41.0142 66.3979 42.3161L71.8104 42.9396H71.8113Z" fill="#00B2E3"></path><path d="M81.0656 16.9017C75.4186 16.2512 70.9645 11.7961 70.313 6.14915L70.0013 3.44195C69.9328 2.84357 69.0632 2.84357 68.9937 3.44195L68.682 6.14818C68.0315 11.7952 63.5764 16.2492 57.9294 16.9007L55.2232 17.2125C54.6248 17.281 54.6248 18.1506 55.2232 18.22L57.9294 18.5318C63.5764 19.1823 68.0305 23.6373 68.682 29.2843L68.9937 31.9906C69.0622 32.5889 69.9318 32.5889 70.0013 31.9906L70.313 29.2843C70.9635 23.6373 75.4186 19.1833 81.0656 18.5318L83.7718 18.22C84.3702 18.1515 84.3702 17.2819 83.7718 17.2125L81.0656 16.9007V16.9017Z" fill="#002A3C"></path><path d="M26.8577 24.8959C24.3175 24.6034 22.3139 22.5989 22.0215 20.0596L21.8815 18.8416C21.8506 18.5723 21.4598 18.5723 21.4289 18.8416L21.2889 20.0596C20.9965 22.5998 18.9919 24.6034 16.4527 24.8959L15.2347 25.0358C14.9654 25.0667 14.9654 25.4576 15.2347 25.4885L16.4527 25.6284C18.9929 25.9208 20.9965 27.9254 21.2889 30.4647L21.4289 31.6827C21.4598 31.952 21.8506 31.952 21.8815 31.6827L22.0215 30.4647C22.3139 27.9245 24.3185 25.9208 26.8577 25.6284L28.0757 25.4885C28.345 25.4576 28.345 25.0667 28.0757 25.0358L26.8577 24.8959Z" fill="#002A3C"></path><path d="M76.1849 85.6472C78.1518 84.8153 79.917 83.6253 81.4333 82.1091C82.9495 80.5928 84.1395 78.8276 84.9714 76.8607C85.8333 74.8233 86.2695 72.6614 86.2695 70.4329V28.5259C86.2695 27.3948 85.3527 26.4789 84.2225 26.4789C83.0923 26.4789 82.1754 27.3957 82.1754 28.5259V70.4329C82.1754 77.2795 76.6047 82.8503 69.7581 82.8503H16.782C9.93533 82.8503 4.36459 77.2795 4.36459 70.4329V17.4587C4.36459 10.6121 9.93533 5.04136 16.782 5.04136H58.1678C59.2989 5.04136 60.2148 4.12448 60.2148 2.99431C60.2148 1.86414 59.298 0.947266 58.1678 0.947266H16.782C14.5535 0.947266 12.3906 1.38447 10.3542 2.24537C8.38725 3.07731 6.62203 4.26732 5.10581 5.78354C3.58958 7.29976 2.39958 9.06499 1.56763 11.0319C0.706736 13.0674 0.269531 15.2303 0.269531 17.4587V70.4339C0.269531 72.6623 0.706736 74.8252 1.56763 76.8616C2.39958 78.8286 3.58958 80.5938 5.10581 82.11C6.62203 83.6263 8.38725 84.8163 10.3542 85.6482C12.3916 86.5101 14.5535 86.9463 16.782 86.9463H69.7571C71.9856 86.9463 74.1484 86.5091 76.1849 85.6482V85.6472Z" fill="#002A3C"></path></g></g><defs><clipPath id="clip0_92_343"><rect width="86" height="86" fill="white" transform="translate(0.62207 0.946289)"></rect></clipPath><clipPath id="clip1_92_343"><rect width="85.999" height="86" fill="white" transform="translate(0.269531 0.946289)"></rect></clipPath></defs></svg>