<svg xmlns="http://www.w3.org/2000/svg" width="80" height="80" viewBox="0 0 80 80" fill="none"><g clip-path="url(#clip0_342_6427)"><path d="M63.9278 35.9874V12.0204H50.3185C43.0739 12.0204 36.3767 8.11458 32.7544 1.77539C29.1321 8.11458 22.4349 12.0204 15.1852 12.0204H1.58105V41.1022C1.58105 53.2794 8.15033 64.4957 18.7256 70.3596L32.7544 78.1402L46.7781 70.3596C47.0492 70.2149 47.3153 70.0599 47.5762 69.8998" stroke="#002A3C" stroke-width="3" stroke-linecap="round" stroke-linejoin="round"></path><path d="M56.4882 35.6051V18.6851H46.1278C40.6073 18.6851 35.5115 15.7144 32.7539 10.8838C29.9911 15.7144 24.8953 18.6851 19.38 18.6851H9.01953V40.8283C9.01953 50.1021 14.0232 58.6421 22.0711 63.1059L32.7539 69.0266L42.3929 63.6794" stroke="#002A3C" stroke-width="3" stroke-linecap="round" stroke-linejoin="round"></path><path d="M59.3744 73.4078C69.6032 73.4078 77.8952 65.0344 77.8952 54.7054C77.8952 44.3763 69.6032 36.0029 59.3744 36.0029C49.1456 36.0029 40.8535 44.3763 40.8535 54.7054C40.8535 65.0344 49.1456 73.4078 59.3744 73.4078Z" fill="#00B2E3"></path><path d="M51.4795 55.0411L56.4116 60.0215L67.0176 49.3115" stroke="white" stroke-width="3" stroke-linecap="round" stroke-linejoin="round"></path><path d="M59.2511 73.93C69.7851 73.93 78.3246 65.3068 78.3246 54.6696C78.3246 44.0324 69.7851 35.4092 59.2511 35.4092C48.7172 35.4092 40.1777 44.0324 40.1777 54.6696C40.1777 65.3068 48.7172 73.93 59.2511 73.93Z" stroke="#002A3C" stroke-width="3" stroke-linecap="round" stroke-linejoin="round"></path></g><defs><clipPath id="clip0_342_6427"><rect width="80" height="80" fill="white"></rect></clipPath></defs></svg>